<svg width="164" height="168" viewBox="0 0 164 168" fill="none" xmlns="http://www.w3.org/2000/svg">
<path d="M153.017 0C158.539 0 163.016 4.47658 163.017 9.99902L163.02 57.7393C163.02 60.0834 162.195 62.3392 160.713 64.125L52.7785 165.085C51.1112 166.645 48.9135 167.513 46.6304 167.513H10C4.47715 167.513 0 163.036 0 157.513V109.901C1.68797e-05 107.103 1.1728 104.432 3.2334 102.538L43.5615 65.4766C44.9034 64.2432 44.0306 62.004 42.208 62.0039H10.001C4.47815 62.0039 0.000976562 57.5267 0.000976562 52.0039V10C0.000980681 4.47718 4.47816 3.20923e-05 10.001 0H153.017Z" fill="#1C1C1C"/>
<path d="M163.02 118V157.513C163.02 163.036 158.542 167.513 153.02 167.513H101.65C99.8357 167.513 98.9587 165.291 100.284 164.052L159.558 108.607C160.827 107.42 162.903 108.306 162.924 110.044L163.02 118Z" fill="#1C1C1C"/>
</svg>
